<?xml version="1.0" standalone="no"?>
<!DOCTYPE svg PUBLIC "-//W3C//DTD SVG 20010904//EN"
 "http://www.w3.org/TR/2001/REC-SVG-20010904/DTD/svg10.dtd">
<svg version="1.0" xmlns="http://www.w3.org/2000/svg"
 width="504.000000pt" height="278.000000pt" viewBox="0 0 504.000000 278.000000"
 preserveAspectRatio="xMidYMid meet">
<metadata>
Created by potrace 1.10, written by Peter Selinger 2001-2011
</metadata>
<g transform="translate(0.000000,278.000000) scale(0.100000,-0.100000)"
fill="#000000" stroke="none">
<path d="M40 2445 l0 -295 373 0 372 0 -4 -895 -3 -895 308 0 309 0 -3 895 -2
895 375 0 375 0 0 295 0 295 -1050 0 -1050 0 0 -295z m2073 242 c5 -36 -1
-486 -8 -504 -3 -8 -96 -11 -353 -10 -276 1 -354 -2 -366 -12 -14 -12 -16
-106 -18 -895 l-3 -881 -272 0 c-149 0 -274 3 -277 6 -3 3 -6 400 -6 881 -1
793 -2 878 -17 890 -13 10 -88 13 -357 14 -188 0 -347 1 -353 2 -10 2 -13 63
-13 271 l0 270 1019 0 1019 -1 5 -31z"/>
<path d="M2380 1550 l0 -1190 305 0 305 0 0 385 0 385 223 0 222 0 67 -128
c38 -70 131 -242 207 -382 l140 -255 290 -5 c160 -3 291 -4 291 -3 0 1 -25 49
-56 105 -31 57 -110 200 -174 318 -206 379 -232 425 -242 438 -6 7 -9 14 -7
15 2 2 34 22 71 46 85 54 195 169 241 252 20 35 50 107 68 159 31 91 33 102
33 245 0 142 -2 155 -32 245 -105 316 -351 503 -722 550 -41 5 -335 10 -652
10 l-578 0 0 -1190z m1155 1159 c55 -6 111 -12 125 -14 14 -2 41 -6 60 -8 66
-10 230 -75 298 -120 150 -99 274 -280 308 -450 28 -141 11 -386 -32 -472 -6
-11 -26 -51 -45 -88 -41 -82 -149 -203 -222 -247 -78 -48 -97 -68 -88 -94 8
-18 68 -131 143 -266 71 -126 218 -396 260 -478 l49 -92 -260 0 c-259 0 -261
0 -275 23 -8 12 -67 119 -131 237 -65 118 -133 242 -151 275 -19 33 -52 94
-73 136 -22 41 -46 80 -54 87 -10 8 -80 12 -233 12 -197 1 -220 -1 -231 -16
-9 -13 -13 -63 -13 -173 0 -86 -2 -214 -4 -286 -2 -71 -5 -167 -5 -213 l-1
-84 -275 3 -275 3 0 1166 0 1165 513 2 c300 2 553 -2 612 -8z"/>
<path d="M2988 2266 c-30 -29 -33 -633 -4 -664 15 -15 444 -18 521 -3 158 31
244 122 263 279 23 202 -71 344 -257 387 -33 8 -140 14 -281 14 -188 2 -230
-1 -242 -13z m597 -48 c67 -35 103 -72 134 -138 22 -47 26 -69 26 -145 0 -49
-6 -109 -13 -133 -17 -55 -72 -117 -134 -148 -67 -34 -153 -44 -395 -44 l-213
0 0 323 0 322 272 -5 c271 -5 273 -5 323 -32z"/>
</g>
</svg>
